<svg width="896" height="219" viewBox="0 0 896 219" fill="none" xmlns="http://www.w3.org/2000/svg">
<g clip-path="url(#clip0_2905_31176)">
<path d="M95.78 105.51L120.48 53.04C99.68 61.25 84.73 64.27 66.31 64.27C45.51 64.27 34.67 57.58 34.67 44.4C34.67 32.31 42.9 25.4 56.77 25.4C65.22 25.4 72.15 27.34 86.89 33.61L127.41 50.67C170.75 69.02 209.75 69.89 262.41 58.66L272.81 21.74C227.31 36.85 175.73 38.37 136.51 23.68L100.32 10.08C84.29 4.02 73.89 0.779999 58.94 0.779999C23.62 0.779999 0 20.22 0 49.37C0 72.91 16.47 87.59 42.25 87.16C52.43 86.94 62.84 85.22 74.97 81.55L63.27 105.52H26.44L16.26 133.59H49.85L8.88 218.22L43.98 215.63L82.55 133.58H127.62L137.8 105.51H95.76H95.78Z" fill="#00059F"/>
<path d="M382.891 118.03L358.841 155.82C352.121 166.62 347.791 169.85 340.641 169.85C333.491 169.85 332.191 163.59 337.391 153.87L356.681 118.03C366.861 99.03 359.711 81.97 341.731 81.97C326.131 81.97 313.341 88.23 299.691 102.91L306.411 84.56H276.511L253.761 148.47C248.561 163.15 240.541 171.57 232.091 171.57C224.721 171.57 223.211 164.88 227.541 153L252.891 84.55H222.771L215.841 103.34C212.371 89.3 203.491 81.96 189.621 81.96C167.951 81.96 149.971 98.37 139.781 127.3C127.001 163.57 137.611 193.59 163.181 193.59C175.961 193.59 185.501 187.76 194.821 173.94C194.601 186.46 201.101 193.59 212.591 193.59C224.081 193.59 233.681 189.43 242.101 181.56L238.591 190.99H268.281L284.751 144.57C293.851 121.68 309.241 104.62 320.941 104.62C330.261 104.62 332.211 111.53 325.711 122.11L313.141 142.84C296.241 170.69 305.121 193.58 333.071 193.58C349.541 193.58 360.811 187.32 372.721 171.12C379.221 185.59 392.651 193.58 410.421 193.58C435.341 193.58 452.891 178.47 452.891 157.09C452.891 147.81 450.071 141.11 442.711 132.47L434.261 122.54C430.141 117.79 428.841 114.77 428.841 110.88C428.841 105.05 433.171 101.16 439.891 101.16C445.311 101.16 450.291 103.32 455.931 108.07L463.511 91.66C454.841 84.75 446.611 81.94 434.911 81.94C413.671 81.94 399.371 91.87 382.911 118L382.891 118.03ZM203.251 140.7C196.971 159.05 187.431 169.85 177.461 169.85C164.681 169.85 161.211 151.93 169.661 129.47C175.941 113.06 184.181 104.64 194.151 104.64C206.721 104.64 210.181 118.24 203.251 140.7ZM409.971 170.28C399.141 170.28 390.471 163.8 385.051 151.5L399.791 126.24C401.091 124.08 402.391 122.35 403.691 120.41C404.561 126.02 406.721 131.21 409.971 135.52L418.201 146.96C421.671 151.71 422.751 154.52 422.751 158.62C422.751 166.18 418.421 170.28 409.971 170.28Z" fill="#00059F"/>
<path d="M882.569 134.01C858.949 159.71 840.749 170.72 821.679 170.72C808.899 170.72 802.829 164.03 806.299 154.09C808.899 148.04 814.529 145.89 827.749 145.89H841.829L848.979 126.89H834.459C820.159 126.89 813.439 120.84 816.909 111.13C818.859 105.95 824.279 102.92 831.649 102.92C842.269 102.92 851.149 107.02 860.039 115.88L873.039 96.66C861.989 86.94 847.249 81.98 829.269 81.98C808.469 81.98 792.219 89.75 788.099 101.63C783.549 115.02 788.749 125.17 803.699 131.64C790.699 134.45 782.899 140.49 775.099 153.88C769.469 163.16 761.019 168.78 751.919 168.99C743.249 169.21 738.919 163.59 735.449 147.83C759.939 137.68 771.199 124.08 771.199 104.86C771.199 90.83 761.229 81.97 745.849 81.97C730.469 81.97 718.549 88.45 706.629 102.91L732.199 32.95H701.859L661.559 146.53C655.489 163.37 648.129 171.58 639.019 171.58C631.649 171.58 630.139 164.89 634.469 153.01L659.819 84.56H629.699L622.769 103.35C619.299 89.31 610.419 81.97 596.549 81.97C576.619 81.97 561.449 95.79 546.279 128.18C531.539 159.49 522.229 170.28 510.309 170.28C500.779 170.28 497.309 163.16 501.639 151.93L519.409 104.21H546.279L556.459 84.56H526.559L536.739 57.14L504.669 62.32L496.649 84.56H476.929L466.529 104.21H489.499L471.079 154.74C463.059 176.55 473.679 193.61 495.129 193.61C514.469 193.61 528.979 185 541.649 164.96C544.579 182.95 554.839 193.61 570.099 193.61C582.879 193.61 592.419 187.78 601.739 173.96C601.519 186.48 608.019 193.61 619.509 193.61C629.889 193.61 639.869 189.52 648.609 182.02L645.509 191.02H675.199L692.529 142.65C701.199 118.68 714.849 104 728.499 104C734.569 104 738.249 107.67 738.249 114.15C738.249 128.4 724.599 138.98 704.229 140.28C708.559 179.36 718.099 193.61 739.769 193.61C753.219 193.61 764.449 188.12 775.129 175.81C780.919 186.88 794.519 193.61 812.789 193.61C843.129 193.61 867.399 182.17 895.999 154.53L882.569 134.02V134.01ZM610.189 140.7C603.909 159.05 594.369 169.85 584.399 169.85C571.619 169.85 568.149 151.93 576.599 129.47C582.879 113.06 591.119 104.64 601.089 104.64C613.659 104.64 617.129 118.24 610.189 140.7Z" fill="#00059F"/>
</g>
<defs>
<clipPath id="clip0_2905_31176">
<rect width="896" height="219" fill="white"/>
</clipPath>
</defs>
</svg>
